<?xml version="1.0" encoding="utf-8"?>
<!-- Generator: Adobe Illustrator 23.0.4, SVG Export Plug-In . SVG Version: 6.00 Build 0)  -->
<svg version="1.1" id="Layer_1" xmlns="http://www.w3.org/2000/svg" xmlns:xlink="http://www.w3.org/1999/xlink" x="0px" y="0px"
	 viewBox="0 0 2649 678" style="enable-background:new 0 0 2649 678;" xml:space="preserve">
<style type="text/css">
	.st0{fill:#014737;}
	.st1{fill:#057A55;}
	.st2{fill:#03543F;}
	.st3{fill:#046C4E;}
	.st4{fill:#0E9F6E;}
	.st5{fill:#31C48D;}
	.st6{fill:#84E1BC;}
	.st7{fill:#BCF0DA;}
	.st8{fill:#DEF7EC;}
	.st9{fill:#9FA6B2;}
	.st10{font-family:'Roboto-Black';}
	.st11{font-size:369px;}
	.st12{letter-spacing:-4;}
</style>
<rect x="932" y="-2512" class="st0" width="960" height="1080"/>
<rect x="638" y="-2820" class="st1" width="65" height="211"/>
<rect x="832" y="-2820" class="st2" width="65" height="211"/>
<rect x="736" y="-2820" class="st3" width="65" height="211"/>
<rect x="540" y="-2820" class="st4" width="65" height="211"/>
<rect x="442" y="-2820" class="st5" width="65" height="211"/>
<rect x="344" y="-2820" class="st6" width="65" height="211"/>
<rect x="248" y="-2820" class="st7" width="65" height="211"/>
<rect x="152" y="-2820" class="st8" width="65" height="211"/>
<rect x="54" y="-2820" class="st9" width="65" height="211"/>
<rect x="1364" y="-1101" class="st0" width="1285" height="665"/>
<rect x="422.23" y="422.7" class="st6" width="49.5" height="85.5"/>
<rect x="641.23" y="320.7" class="st1" width="49.5" height="187.5"/>
<rect x="567.73" y="368.7" class="st4" width="49.5" height="139.5"/>
<rect x="276.73" y="448.2" class="st8" width="49.5" height="60"/>
<text transform="matrix(1 0 0 1 806.3574 508.5186)" class="st0 st10 st11 st12">fit vitals</text>
<rect x="348.73" y="436.2" class="st7" width="49.5" height="72"/>
<rect x="495.73" y="409.2" class="st5" width="48" height="99"/>
<rect x="714.73" y="266.7" class="st3" width="48" height="241.5"/>
<rect x="1593.91" y="-749.68" class="st4" width="26.4" height="45.6"/>
<rect x="1710.71" y="-804.08" class="st7" width="26.4" height="100"/>
<rect x="1671.51" y="-778.48" class="st6" width="26.4" height="74.4"/>
<rect x="1516.31" y="-736.08" class="st3" width="26.4" height="32"/>
<text transform="matrix(1 0 0 1 1798.7773 -703.9072)" class="st10" style="fill:#FFFFFF; font-size:196.8px; letter-spacing:-2;">fit vitals</text>
<rect x="1554.71" y="-742.48" class="st1" width="26.4" height="38.4"/>
<rect x="1633.11" y="-756.88" class="st5" width="25.6" height="52.8"/>
<rect x="1749.91" y="-832.88" class="st8" width="25.6" height="128.8"/>
<rect x="282" y="-2164" class="st6" width="66" height="114"/>
<rect x="574" y="-2300" class="st1" width="66" height="250"/>
<rect x="476" y="-2236" class="st4" width="66" height="186"/>
<rect x="88" y="-2130" class="st8" width="66" height="80"/>
<rect x="184" y="-2146" class="st7" width="66" height="96"/>
<rect x="380" y="-2182" class="st5" width="64" height="132"/>
<rect x="672" y="-2372" class="st3" width="64" height="322"/>
<text transform="matrix(1 0 0 1 88.1719 -1820.5703)" class="st0 st10" style="font-size:186px; letter-spacing:-2;">fit vitals</text>
<rect x="282" y="-2164" class="st6" width="66" height="114"/>
<rect x="574" y="-2300" class="st1" width="66" height="250"/>
<rect x="476" y="-2236" class="st4" width="66" height="186"/>
<rect x="88" y="-2130" class="st8" width="66" height="80"/>
<rect x="184" y="-2146" class="st7" width="66" height="96"/>
<rect x="380" y="-2182" class="st5" width="64" height="132"/>
<rect x="672" y="-2372" class="st3" width="64" height="322"/>
<text transform="matrix(1 0 0 1 1088.1719 -1820.5703)" class="st0" style="font-family:'Gilroy-Bold'; font-size:186px; letter-spacing:-2;">fit vitals</text>
<rect x="1282" y="-2151" class="st6" width="66" height="114"/>
<rect x="1574" y="-2287" class="st1" width="66" height="250"/>
<rect x="1476" y="-2223" class="st4" width="66" height="186"/>
<rect x="1088" y="-2117" class="st8" width="66" height="80"/>
<rect x="1184" y="-2133" class="st7" width="66" height="96"/>
<rect x="1380" y="-2169" class="st5" width="64" height="132"/>
<rect x="1672" y="-2359" class="st3" width="64" height="322"/>
<text transform="matrix(1 0 0 1 1088.1719 -1820.5703)" class="st10" style="fill:#FFFFFF; font-size:186px; letter-spacing:-2;">fit vitals</text>
<rect x="1282" y="-2151" class="st4" width="66" height="114"/>
<rect x="1574" y="-2287" class="st7" width="66" height="250"/>
<rect x="1476" y="-2223" class="st6" width="66" height="186"/>
<rect x="1088" y="-2117" class="st3" width="66" height="80"/>
<rect x="1184" y="-2133" class="st1" width="66" height="96"/>
<rect x="1380" y="-2169" class="st5" width="64" height="132"/>
<rect x="1672" y="-2359" class="st8" width="64" height="322"/>
<rect x="268.91" y="-759.68" class="st6" width="26.4" height="45.6"/>
<rect x="385.71" y="-814.08" class="st1" width="26.4" height="100"/>
<rect x="346.51" y="-788.48" class="st4" width="26.4" height="74.4"/>
<rect x="191.31" y="-746.08" class="st8" width="26.4" height="32"/>
<text transform="matrix(1 0 0 1 473.7773 -713.9072)" class="st2 st10" style="font-size:196.8px; letter-spacing:-2;">fit vitals</text>
<rect x="229.71" y="-752.48" class="st7" width="26.4" height="38.4"/>
<rect x="308.11" y="-766.88" class="st5" width="25.6" height="52.8"/>
<rect x="424.91" y="-842.88" class="st3" width="25.6" height="128.8"/>
<rect x="2365.06" y="-1426.65" style="fill:none;" width="0" height="3.35"/>
</svg>
